# WaveFront *.obj file (generated by Autodesk ATF)

mtllib c09af805-5002-438b-b495-8fcf05a347dd.zip.mtl

g Body1

v 25.000000 6.000000 25.000000
v 25.000000 6.000000 -25.000000
v -25.000000 6.000000 -25.000000
v -25.000000 6.000000 25.000000
v 1.500000 6.000000 -1.322876
v 1.772303 6.000000 -0.926791
v 1.942242 6.000000 -0.477176
v 2.000000 6.000000 -0.000000
v 1.942242 6.000000 0.477176
v 1.772303 6.000000 0.926791
v 1.500000 6.000000 1.322876
v -1.500000 6.000000 1.322876
v -1.772303 6.000000 0.926791
v -1.942242 6.000000 0.477176
v -2.000000 6.000000 -0.000000
v -1.942242 6.000000 -0.477176
v -1.772303 6.000000 -0.926791
v -1.500000 6.000000 -1.322876
v 25.000000 0.000000 -25.000000
v 25.000000 0.000000 25.000000
v -25.000000 0.000000 25.000000
v -25.000000 0.000000 -25.000000
v -1.500000 0.000000 1.322876
v 1.500000 0.000000 1.322876
v 1.772303 0.000000 0.926791
v 1.942242 0.000000 0.477176
v 2.000000 0.000000 -0.000000
v 1.942242 0.000000 -0.477176
v 1.772303 0.000000 -0.926791
v 1.500000 0.000000 -1.322876
v -1.500000 0.000000 -1.322876
v -1.772303 0.000000 -0.926791
v -1.942242 0.000000 -0.477176
v -2.000000 0.000000 -0.000000
v -1.942242 0.000000 0.477176
v -1.772303 0.000000 0.926791
vt -2.500000 2.500000 0.000000
vt -0.000000 0.200000 0.000000
vt 2.500000 2.500000 0.000000
vt 0.047718 0.194224 0.000000
vt 0.092679 0.177230 0.000000
vt -2.500000 -2.500000 0.000000
vt -0.132288 0.150000 0.000000
vt -0.092679 0.177230 0.000000
vt -0.047718 0.194224 0.000000
vt 2.500000 -2.500000 0.000000
vt -0.000000 -0.200000 0.000000
vt -0.047718 -0.194224 0.000000
vt -0.092679 -0.177230 0.000000
vt 0.132288 0.150000 0.000000
vt 0.132288 -0.150000 0.000000
vt 0.092679 -0.177230 0.000000
vt 0.047718 -0.194224 0.000000
vt -0.132288 -0.150000 0.000000
vt -2.500000 2.500000 0.000000
vt 0.000000 0.200000 0.000000
vt 2.500000 2.500000 0.000000
vt 0.047718 0.194224 0.000000
vt 0.092679 0.177230 0.000000
vt -2.500000 -2.500000 0.000000
vt -0.132288 0.150000 0.000000
vt -0.092679 0.177230 0.000000
vt -0.047718 0.194224 0.000000
vt 2.500000 -2.500000 0.000000
vt 0.000000 -0.200000 0.000000
vt -0.047718 -0.194224 0.000000
vt -0.092679 -0.177230 0.000000
vt 0.132288 0.150000 0.000000
vt 0.132288 -0.150000 0.000000
vt 0.092679 -0.177230 0.000000
vt -0.132288 -0.150000 0.000000
vt 0.047718 -0.194224 0.000000
vt -0.000000 -0.600000 0.000000
vt 5.000000 -0.600000 0.000000
vt -0.000000 0.000000 0.000000
vt 5.000000 0.000000 0.000000
vt -5.000000 -0.600000 0.000000
vt -0.000000 -0.600000 0.000000
vt -5.000000 0.000000 0.000000
vt -0.000000 0.000000 0.000000
vt -5.000000 -0.600000 0.000000
vt -0.000000 -0.600000 0.000000
vt -5.000000 0.000000 0.000000
vt -0.000000 0.000000 0.000000
vt 5.000000 -0.600000 0.000000
vt -0.000000 0.000000 0.000000
vt 5.000000 0.000000 0.000000
vt 0.600000 0.169612 0.000000
vt 0.600000 0.217795 0.000000
vt 0.000000 0.169612 0.000000
vt 0.000000 0.217795 0.000000
vt 0.600000 0.265977 0.000000
vt 0.000000 0.265977 0.000000
vt -0.000000 0.314159 0.000000
vt 0.600000 0.314159 0.000000
vt -0.000000 0.362342 0.000000
vt 0.600000 0.362342 0.000000
vt 0.600000 0.410524 0.000000
vt -0.000000 0.410524 0.000000
vt 0.600000 0.458706 0.000000
vt -0.000000 0.458706 0.000000
vt 0.000000 -0.600000 0.000000
vt 0.300000 -0.600000 0.000000
vt 0.000000 0.000000 0.000000
vt 0.300000 0.000000 0.000000
vt 0.600000 -0.458706 0.000000
vt 0.600000 -0.410524 0.000000
vt 0.000000 -0.458706 0.000000
vt 0.000000 -0.410524 0.000000
vt 0.600000 -0.362342 0.000000
vt 0.000000 -0.362342 0.000000
vt 0.000000 -0.314159 0.000000
vt 0.600000 -0.314159 0.000000
vt 0.000000 -0.265977 0.000000
vt 0.600000 -0.265977 0.000000
vt 0.600000 -0.217795 0.000000
vt 0.000000 -0.217795 0.000000
vt 0.600000 -0.169612 0.000000
vt 0.000000 -0.169612 0.000000
vt -0.300000 -0.600000 0.000000
vt -0.000000 -0.600000 0.000000
vt -0.300000 0.000000 0.000000
vt -0.000000 0.000000 0.000000
vn 0.000000 0.100000 0.000000
vn 0.000000 0.100000 0.000000
vn 0.000000 0.100000 0.000000
vn 0.000000 0.100000 0.000000
vn 0.000000 0.100000 0.000000
vn 0.000000 0.100000 0.000000
vn 0.000000 0.100000 0.000000
vn 0.000000 0.100000 0.000000
vn 0.000000 0.100000 0.000000
vn 0.000000 0.100000 0.000000
vn 0.000000 0.100000 0.000000
vn 0.000000 0.100000 0.000000
vn 0.000000 0.100000 0.000000
vn 0.000000 0.100000 0.000000
vn 0.000000 0.100000 0.000000
vn 0.000000 0.100000 0.000000
vn 0.000000 0.100000 0.000000
vn 0.000000 0.100000 0.000000
vn 0.000000 -0.100000 0.000000
vn 0.000000 -0.100000 0.000000
vn 0.000000 -0.100000 0.000000
vn 0.000000 -0.100000 0.000000
vn 0.000000 -0.100000 0.000000
vn 0.000000 -0.100000 0.000000
vn 0.000000 -0.100000 0.000000
vn 0.000000 -0.100000 0.000000
vn 0.000000 -0.100000 0.000000
vn 0.000000 -0.100000 0.000000
vn 0.000000 -0.100000 0.000000
vn 0.000000 -0.100000 0.000000
vn 0.000000 -0.100000 0.000000
vn 0.000000 -0.100000 0.000000
vn 0.000000 -0.100000 0.000000
vn 0.000000 -0.100000 0.000000
vn 0.000000 -0.100000 0.000000
vn 0.000000 -0.100000 0.000000
vn 0.100000 0.000000 -0.000000
vn 0.100000 0.000000 -0.000000
vn 0.100000 0.000000 -0.000000
vn 0.100000 0.000000 -0.000000
vn 0.000000 0.000000 -0.100000
vn 0.000000 0.000000 -0.100000
vn 0.000000 0.000000 -0.100000
vn 0.000000 0.000000 -0.100000
vn -0.100000 0.000000 -0.000000
vn -0.100000 0.000000 -0.000000
vn -0.100000 0.000000 -0.000000
vn -0.100000 0.000000 -0.000000
vn 0.000000 0.000000 0.100000
vn 0.000000 0.000000 0.100000
vn 0.000000 0.000000 0.100000
vn 0.000000 0.000000 0.100000
vn -0.075000 0.000000 0.066144
vn -0.088615 0.000000 0.046340
vn -0.075000 0.000000 0.066144
vn -0.088615 0.000000 0.046340
vn -0.097112 0.000000 0.023859
vn -0.097112 0.000000 0.023859
vn -0.100000 0.000000 -0.000000
vn -0.100000 0.000000 -0.000000
vn -0.097112 0.000000 -0.023859
vn -0.097112 0.000000 -0.023859
vn -0.088615 0.000000 -0.046340
vn -0.088615 0.000000 -0.046340
vn -0.075000 0.000000 -0.066144
vn -0.075000 0.000000 -0.066144
vn 0.000000 0.000000 0.100000
vn 0.000000 0.000000 0.100000
vn 0.000000 0.000000 0.100000
vn 0.000000 0.000000 0.100000
vn 0.075000 0.000000 -0.066144
vn 0.088615 0.000000 -0.046340
vn 0.075000 0.000000 -0.066144
vn 0.088615 0.000000 -0.046340
vn 0.097112 0.000000 -0.023859
vn 0.097112 0.000000 -0.023859
vn 0.100000 -0.000000 0.000000
vn 0.100000 -0.000000 0.000000
vn 0.097112 -0.000000 0.023859
vn 0.097112 -0.000000 0.023859
vn 0.088615 -0.000000 0.046340
vn 0.088615 -0.000000 0.046340
vn 0.075000 -0.000000 0.066144
vn 0.075000 -0.000000 0.066144
vn 0.000000 0.000000 -0.100000
vn 0.000000 0.000000 -0.100000
vn 0.000000 0.000000 -0.100000
vn 0.000000 0.000000 -0.100000
usemtl Steel_-_Satin
f 2/1/1 8/2/2 1/3/3
f 1/3/3 8/2/2 9/4/4
f 1/3/3 9/4/4 10/5/5
f 3/6/6 5/7/7 2/1/1
f 2/1/1 5/7/7 6/8/8
f 2/1/1 6/8/8 7/9/9
f 4/10/10 15/11/11 3/6/6
f 3/6/6 15/11/11 16/12/12
f 3/6/6 16/12/12 17/13/13
f 1/3/3 11/14/14 4/10/10
f 4/10/10 11/14/14 12/15/15
f 4/10/10 12/15/15 13/16/16
f 7/9/9 8/2/2 2/1/1
f 10/5/5 11/14/14 1/3/3
f 13/16/16 14/17/17 4/10/10
f 4/10/10 14/17/17 15/11/11
f 17/13/13 18/18/18 3/6/6
f 3/6/6 18/18/18 5/7/7
f 20/19/19 27/20/20 19/21/21
f 19/21/21 27/20/20 28/22/22
f 19/21/21 28/22/22 29/23/23
f 21/24/24 24/25/25 20/19/19
f 20/19/19 24/25/25 25/26/26
f 20/19/19 25/26/26 26/27/27
f 22/28/28 34/29/29 21/24/24
f 21/24/24 34/29/29 35/30/30
f 21/24/24 35/30/30 36/31/31
f 19/21/21 30/32/32 22/28/28
f 22/28/28 30/32/32 31/33/33
f 22/28/28 31/33/33 32/34/34
f 36/31/31 23/35/35 21/24/24
f 21/24/24 23/35/35 24/25/25
f 26/27/27 27/20/20 20/19/19
f 29/23/23 30/32/32 19/21/21
f 32/34/34 33/36/36 22/28/28
f 22/28/28 33/36/36 34/29/29
f 20/37/37 19/38/38 1/39/39
f 1/39/39 19/38/38 2/40/40
f 19/41/41 22/42/42 2/43/43
f 2/43/43 22/42/42 3/44/44
f 22/45/45 21/46/46 3/47/47
f 3/47/47 21/46/46 4/48/48
f 21/46/49 20/49/50 4/50/51
f 4/50/51 20/49/50 1/51/52
f 30/52/53 29/53/54 5/54/55
f 5/54/55 29/53/54 6/55/56
f 6/55/56 29/53/54 28/56/57
f 6/55/56 28/56/57 7/57/58
f 7/57/58 28/56/57 8/58/59
f 8/58/59 28/56/57 27/59/60
f 8/58/59 27/59/60 9/60/61
f 9/60/61 27/59/60 26/61/62
f 9/60/61 26/61/62 25/62/63
f 9/60/61 25/62/63 10/63/64
f 10/63/64 25/62/63 24/64/65
f 10/63/64 24/64/65 11/65/66
f 31/66/67 30/67/68 18/68/69
f 18/68/69 30/67/68 5/69/70
f 23/70/71 36/71/72 12/72/73
f 12/72/73 36/71/72 13/73/74
f 13/73/74 36/71/72 35/74/75
f 13/73/74 35/74/75 14/75/76
f 14/75/76 35/74/75 15/76/77
f 15/76/77 35/74/75 34/77/78
f 15/76/77 34/77/78 16/78/79
f 16/78/79 34/77/78 33/79/80
f 16/78/79 33/79/80 32/80/81
f 16/78/79 32/80/81 17/81/82
f 17/81/82 32/80/81 31/82/83
f 17/81/82 31/82/83 18/83/84
f 24/84/85 23/85/86 11/86/87
f 11/86/87 23/85/86 12/87/88

# 36 vertices
# 87 texture params
# 88 normals
# 72 facets

# 1 groups
