# WaveFront *.obj file (generated by Autodesk ATF)

mtllib 1687ac5c-b1ef-45c3-9208-9f28165bcf2a.zip.mtl

g Body1

v 2.250000 -25.000000 -1.299038
v 0.000000 -25.000000 -2.598076
v 0.000000 25.000000 -2.598076
v 2.250000 25.000000 -1.299038
v -2.250000 -25.000000 -1.299038
v -2.250000 25.000000 -1.299038
v -2.250000 -25.000000 1.299038
v -2.250000 25.000000 1.299038
v -0.000000 -25.000000 2.598076
v -0.000000 25.000000 2.598076
v 2.250000 -25.000000 1.299038
v 2.250000 25.000000 1.299038
vt -0.000000 -5.000000 0.000000
vt 0.259808 -5.000000 0.000000
vt -0.000000 0.000000 0.000000
vt 0.259808 0.000000 0.000000
vt -0.000000 -5.000000 0.000000
vt 0.259808 -5.000000 0.000000
vt -0.000000 0.000000 0.000000
vt 0.259808 0.000000 0.000000
vt -0.000000 -5.000000 0.000000
vt 0.259808 -5.000000 0.000000
vt -0.000000 0.000000 0.000000
vt 0.259808 0.000000 0.000000
vt 0.000000 -5.000000 0.000000
vt 0.259808 -5.000000 0.000000
vt -0.000000 0.000000 0.000000
vt 0.259808 0.000000 0.000000
vt -0.000000 -5.000000 0.000000
vt 0.259808 -5.000000 0.000000
vt -0.000000 0.000000 0.000000
vt 0.259808 0.000000 0.000000
vt -0.000000 -5.000000 0.000000
vt 0.259808 -5.000000 0.000000
vt -0.000000 0.000000 0.000000
vt 0.259808 0.000000 0.000000
vt 0.129904 0.225000 0.000000
vt -0.129904 0.225000 0.000000
vt 0.259808 -0.000000 0.000000
vt -0.259808 0.000000 0.000000
vt 0.129904 -0.225000 0.000000
vt -0.129904 -0.225000 0.000000
vt 0.129904 0.225000 0.000000
vt -0.129904 0.225000 0.000000
vt 0.259808 0.000000 0.000000
vt -0.259808 -0.000000 0.000000
vt 0.129904 -0.225000 0.000000
vt -0.129904 -0.225000 0.000000
vn 0.050000 0.000000 -0.086603
vn 0.050000 0.000000 -0.086603
vn 0.050000 0.000000 -0.086603
vn 0.050000 0.000000 -0.086603
vn -0.050000 0.000000 -0.086603
vn -0.050000 0.000000 -0.086603
vn -0.050000 0.000000 -0.086603
vn -0.050000 0.000000 -0.086603
vn -0.100000 0.000000 -0.000000
vn -0.100000 0.000000 -0.000000
vn -0.100000 0.000000 -0.000000
vn -0.100000 0.000000 -0.000000
vn -0.050000 0.000000 0.086603
vn -0.050000 0.000000 0.086603
vn -0.050000 0.000000 0.086603
vn -0.050000 0.000000 0.086603
vn 0.050000 -0.000000 0.086603
vn 0.050000 -0.000000 0.086603
vn 0.050000 -0.000000 0.086603
vn 0.050000 -0.000000 0.086603
vn 0.100000 0.000000 0.000000
vn 0.100000 0.000000 0.000000
vn 0.100000 0.000000 0.000000
vn 0.100000 0.000000 0.000000
vn 0.000000 0.100000 0.000000
vn 0.000000 0.100000 0.000000
vn 0.000000 0.100000 0.000000
vn 0.000000 0.100000 0.000000
vn 0.000000 0.100000 0.000000
vn 0.000000 0.100000 0.000000
vn 0.000000 -0.100000 0.000000
vn 0.000000 -0.100000 0.000000
vn 0.000000 -0.100000 0.000000
vn 0.000000 -0.100000 0.000000
vn 0.000000 -0.100000 0.000000
vn 0.000000 -0.100000 0.000000
usemtl Steel_-_Satin
f 1/1/1 2/2/2 4/3/3
f 4/3/3 2/2/2 3/4/4
f 2/5/5 5/6/6 3/7/7
f 3/7/7 5/6/6 6/8/8
f 5/9/9 7/10/10 6/11/11
f 6/11/11 7/10/10 8/12/12
f 7/13/13 9/14/14 8/15/15
f 8/15/15 9/14/14 10/16/16
f 9/17/17 11/18/18 10/19/19
f 10/19/19 11/18/18 12/20/20
f 11/21/21 1/22/22 12/23/23
f 12/23/23 1/22/22 4/24/24
f 12/25/25 4/26/26 10/27/27
f 10/27/27 4/26/26 3/28/28
f 10/27/27 3/28/28 8/29/29
f 8/29/29 3/28/28 6/30/30
f 1/31/31 11/32/32 2/33/33
f 2/33/33 11/32/32 9/34/34
f 2/33/33 9/34/34 5/35/35
f 5/35/35 9/34/34 7/36/36

# 12 vertices
# 36 texture params
# 36 normals
# 20 facets

# 1 groups
